<svg width="96" height="96" viewBox="0 0 96 96" fill="none" xmlns="http://www.w3.org/2000/svg">
  <path d="M49 18L35 32L43.5 40.5L57.5 26.5L49 18Z" fill="#2684FF"/>
  <path d="M56.8 25.8L42.8 39.8L51.2 48.2L65.2 34.2L56.8 25.8Z" fill="#2684FF"/>
  <path d="M34 41L20 55L28.5 63.5L42.5 49.5L34 41Z" fill="#2684FF"/>
  <path d="M41.8 48.8L27.8 62.8L36.2 71.2L50.2 57.2L41.8 48.8Z" fill="#4C9AFF"/>
  <path d="M57 41L43 55L51.5 63.5L65.5 49.5L57 41Z" fill="#0052CC"/>
  <path d="M49.2 48.8L35.2 62.8L43.6 71.2L57.6 57.2L49.2 48.8Z" fill="#2684FF"/>
</svg>
