<!DOCTYPE svg PUBLIC "-//W3C//DTD SVG 1.1//EN" "http://www.w3.org/Graphics/SVG/1.1/DTD/svg11.dtd">
<!-- Uploaded to: SVG Repo, www.svgrepo.com, Transformed by: SVG Repo Mixer Tools -->
<svg fill="#ffffff" version="1.1" id="Capa_1" xmlns="http://www.w3.org/2000/svg" xmlns:xlink="http://www.w3.org/1999/xlink" width="800px" height="800px" viewBox="0 0 573.012 573.012" xml:space="preserve" stroke="#ffffff">
<g id="SVGRepo_bgCarrier" stroke-width="0"/>
<g id="SVGRepo_tracerCarrier" stroke-linecap="round" stroke-linejoin="round"/>
<g id="SVGRepo_iconCarrier"> <g> <path d="M437.361,279.211c-8.301-3.4-16.801-5.8-25.4-8.3c50.5-38.6,19.9-97.6-32.1-120c-7.301-3.1-19.9-6.7-35.2-10.4 c1.5-2.1,2.8-4.6,4-6.7c15.899-27.5,15.6-59.7-11.601-78.6c-2.8-1.8-8-4-15-5.5c12.2-31.2-47.4-51.4-69.8-49.6 c-6.1,0.6-6.4,9.8,0,9.8c33.4-4,45.3,7.6,36.101,34.6c-26.601-1.8-53.901,1.5-51.401,19.3c4.9,40.4,62.401,14.7,78-2.4 c0.3-0.3,0.3-0.6,0.6-0.6c0.301,0,0.301,0,0.601,0c23.899,4.9,33.7,23.9,29.7,46.2c-2.101,11.3-7,21.7-14.101,31.2 c-61.5-11.9-153-17.4-158.8,27.2c-4.6,34.6,56.9,47.4,79.3,44.7c34.9-4.3,63.3-27.8,83.5-55.7c14.7,2.4,29.4,6.4,42.5,12.2 c48,20.8,60.601,69.8,15.601,98.8c-0.601,0.6-1.5,0.9-2.101,1.2c-32.7-6.7-66.399-9.2-99.8-14.4c-48.3-7.7-99.101-13.8-147.5-4.6 c-18.4,3.4-47.1,20.8-41,43.499c7.6,27.801,58.1,32.7,80.2,35.5c67.6,8.9,150.9-7.3,211.1-43.099c4,0.9,8.3,1.5,12.2,2.4 c36.7,9.199,68.2,30,72.8,71.6c4.3,36.7-35.5,65.5-61.2,82.9c-25.699,17.399-57.5,30.6-91.8,39.5 c1.2-22.9-1.5-45.601-14.399-65.801c-23.301-36.1-83.801-33.399-120.001-31.8c-58.8,2.8-169.2,46.5-78.6,102.5 c51.4,31.8,126.1,32.4,194.601,17.4c-3.101,23-8.301,45.6-10.4,63c-1.2,10.4,15,10.4,16.2,0c2.399-21.4,8-44.4,11-67 c38.899-10.1,75-25.1,102.8-41.9C495.261,414.511,529.761,316.011,437.361,279.211z M281.36,181.011c-14.1,8.3-30,11.6-46.2,11.6 c-15.9,0-65.2-27.2-32.4-38.9c28.2-9.8,63-6.7,92.401-4.6c8.3,0.6,16.8,1.2,25.1,2.4 C308.261,163.611,294.161,173.411,281.36,181.011z M202.661,310.511c-16.8-0.3-34.3-4.6-50.8-8.3c-16.5-1.2-22.9-12.9-19.3-34.3 c11.6-5.5,23.6-8.3,36.4-8.9c42.8-4.9,88.1,2.8,130.401,9.5c23.3,3.7,46.8,6.1,70.1,9.8 C319.261,301.911,254.76,311.711,202.661,310.511z M122.26,469.911c-13.8-41.601-5.5-63.601,25.1-66.4c10.4-2.1,20.8-4,31.5-4.9 c27.5-3.399,55.1-2.8,82.3,2.101c44.4,8.3,52,43.5,49.3,82C245.561,496.511,174.86,493.811,122.26,469.911z"/> </g> </g>
</svg>