<svg width="96" height="96" viewBox="0 0 96 96" fill="none" xmlns="http://www.w3.org/2000/svg">
  <path d="M71.5 69C67.7 71.6 62.9 73 57.1 73C42.9 73 31 64.4 26 51.6C31.3 56 37.8 59.1 45.4 60.6C34.2 53.6 28.4 43.8 27 31.4C32.4 38.4 39.4 44.3 48 49.1C41.7 42.2 38.2 34.8 38.2 27.1C38.2 26 38.3 24.9 38.4 23.9C46.5 33.5 56.8 41.2 69.4 46.4C72.6 47.8 76.2 49 80 49.8C75.9 42.9 69.4 36.8 60.5 31.4C73.4 34.4 82.5 44.8 82.5 56.8C82.5 61.8 80.9 66.5 77.8 70.4C75.7 67.6 72.9 66.8 69.5 67.9L71.5 69Z" fill="url(#paint0_linear_350_1)"/>
  <path d="M57.8 62.5C50.2 60.8 43.4 57.4 37.1 52.2C42.7 59 50 63.7 58.6 66.1C62.9 67.3 66.8 67.5 70.4 66.8C66.5 63.5 62.4 62.1 57.8 62.5Z" fill="#FFD8B4"/>
  <defs>
    <linearGradient id="paint0_linear_350_1" x1="26" y1="22" x2="79" y2="75" gradientUnits="userSpaceOnUse">
      <stop stop-color="#FFB057"/>
      <stop offset="1" stop-color="#F15A24"/>
    </linearGradient>
  </defs>
</svg>
