<svg width="96" height="96" viewBox="0 0 96 96" fill="none" xmlns="http://www.w3.org/2000/svg">
  <path d="M29 26H47C49.2 26 51 27.8 51 30V42C51 44.2 49.2 46 47 46H29C26.8 46 25 44.2 25 42V30C25 27.8 26.8 26 29 26Z" stroke="#F2A43A" stroke-width="5"/>
  <path d="M57 50H75C77.2 50 79 51.8 79 54V66C79 68.2 77.2 70 75 70H57C54.8 70 53 68.2 53 66V54C53 51.8 54.8 50 57 50Z" stroke="#F7C641" stroke-width="5"/>
  <path d="M21 50H39C41.2 50 43 51.8 43 54V66C43 68.2 41.2 70 39 70H21C18.8 70 17 68.2 17 66V54C17 51.8 18.8 50 21 50Z" stroke="#F08A2B" stroke-width="5"/>
  <path d="M48 46V58" stroke="#F8D49C" stroke-width="4" stroke-linecap="round"/>
  <path d="M30 58H66" stroke="#F8D49C" stroke-width="4" stroke-linecap="round"/>
</svg>
